<?xml version="1.0" standalone="no"?>
<!DOCTYPE svg PUBLIC "-//W3C//DTD SVG 20010904//EN"
 "http://www.w3.org/TR/2001/REC-SVG-20010904/DTD/svg10.dtd">
<svg version="1.0" xmlns="http://www.w3.org/2000/svg"
 width="700.000000pt" height="700.000000pt" viewBox="0 0 700.000000 700.000000"
 preserveAspectRatio="xMidYMid meet">
<metadata>
Created by potrace 1.14, written by Peter Selinger 2001-2017
</metadata>
<g transform="translate(0.000000,700.000000) scale(0.100000,-0.100000)"
fill="#000000" stroke="none">
<path d="M193 6398 c-66 -24 -128 -79 -161 -142 l-27 -51 0 -810 0 -810 23
-42 c35 -67 79 -110 140 -139 55 -26 63 -27 234 -28 151 -1 178 -3 179 -16 0
-8 1 -811 3 -1785 l2 -1770 21 -47 c28 -59 86 -118 149 -149 l49 -24 2695 0
2695 1 48 22 c65 30 131 100 154 165 17 49 18 140 19 1812 1 968 3 1767 3
1775 1 13 25 15 162 15 237 -1 315 31 384 156 l30 54 3 795 c2 608 -1 803 -10
830 -32 90 -102 161 -188 190 -47 16 -262 17 -3304 17 -3142 0 -3255 -1 -3303
-19z m6212 -567 c12 -1 15 -854 4 -866 -5 -4 -3151 -7 -5634 -5 l-191 0 0 435
c1 428 1 434 21 437 16 2 5768 1 5800 -1z m-580 -1460 c7 -1 9 -536 8 -1588
-1 -874 -2 -1595 -2 -1603 -1 -13 -267 -15 -2331 -15 -2064 0 -2330 2 -2331
15 -1 19 -1 3137 0 3170 l1 25 2323 -1 c1277 -1 2327 -2 2332 -3z"/>
<path d="M2915 3789 c-182 -12 -292 -130 -287 -305 4 -117 84 -222 201 -262
24 -8 215 -12 669 -12 708 -1 691 -2 772 67 85 73 118 173 96 293 -16 86 -101
177 -196 209 -38 12 -1102 21 -1255 10z"/>
</g>
</svg>
